<svg xmlns="http://www.w3.org/2000/svg" width="166" height="42" viewBox="0 0 166 42">
    <path class="logo-text"
          d="M44.47862,26.1569a.8153.8153,0,0,1-.24246.5273,6.21183,6.21183,0,0,1-2.46771,1.6661,8.05266,8.05266,0,0,1-2.9421.58,7.67133,7.67133,0,0,1-7.66619-7.67161,7.68051,7.68051,0,0,1,7.66619-7.66108,8.034,8.034,0,0,1,2.9421.58165,6.27239,6.27239,0,0,1,2.46771,1.66052.85788.85788,0,0,1,.24246.53951.81273.81273,0,0,1-.79155.79315.84318.84318,0,0,1-.5277-.24382q-.23225-.21189-.71765-.61477a5.79074,5.79074,0,0,0-3.62048-1.18717,6.14449,6.14449,0,0,0-6.13209,6.132,6.14405,6.14405,0,0,0,6.13209,6.14254,5.81,5.81,0,0,0,3.62048-1.181q.23177-.21082.71765-.61166a.84581.84581,0,0,1,.5277-.24254.81164.81164,0,0,1,.79155.79091Z"
          fill="#fff"/>
    <path class="logo-text"
          d="M56.83873,14.36743a.67577.67577,0,0,1-.76968.75923h-3.828V28.1598a.76452.76452,0,1,1-1.529,0V15.12666H46.88424a.67576.67576,0,0,1-.76984-.75923.68.68,0,0,1,.76889-.76984h9.18656A.6801.6801,0,0,1,56.83873,14.36743Z"
          fill="#fff"/>
    <path class="logo-text"
          d="M58.991,28.16v-13.792a.7937.7937,0,0,1,.76968-.77032h3.828a4.5932,4.5932,0,0,1,4.59767,4.603,4.60489,4.60489,0,0,1-4.60389,4.60294H61.28029a.6762.6762,0,0,1-.76027-.76976v6.12674A.76452.76452,0,1,1,58.991,28.16Zm1.529-6.12618a.67167.67167,0,0,1,.76059-.75931h2.30282a3.06871,3.06871,0,0,0,2.17066-5.24309,2.95778,2.95778,0,0,0-2.17066-.90472H60.52Z"
          fill="#fff"/>
    <path class="logo-text"
          d="M85.15452,21.25867a7.66635,7.66635,0,0,1-15.33269,0,7.66636,7.66636,0,0,1,15.33269,0Zm-1.52915,0A6.1372,6.1372,0,1,0,73.152,25.60183a6.1372,6.1372,0,0,0,10.47341-4.34316Z"
          fill="#fff"/>
    <path class="logo-text"
          d="M116.06476,26.1569a.81479.81479,0,0,1-.24262.5273,6.21057,6.21057,0,0,1-2.46739,1.6661,8.05266,8.05266,0,0,1-2.9421.58,7.67133,7.67133,0,0,1-7.66651-7.67161,7.68106,7.68106,0,0,1,7.66651-7.66108,8.034,8.034,0,0,1,2.9421.58165,6.27111,6.27111,0,0,1,2.46739,1.66052.85732.85732,0,0,1,.24262.53951.81243.81243,0,0,1-.79155.79315.84282.84282,0,0,1-.5277-.24382q-.23249-.21189-.71781-.61477a5.7895,5.7895,0,0,0-3.62016-1.18717,6.14421,6.14421,0,0,0-6.13225,6.132,6.14378,6.14378,0,0,0,6.13225,6.14254,5.80879,5.80879,0,0,0,3.62016-1.181q.23225-.21082.71781-.61166a.84546.84546,0,0,1,.5277-.24254.81134.81134,0,0,1,.79155.79091Z"
          fill="#fff"/>
    <path class="logo-text"
          d="M131.00862,14.378V28.16052a.76459.76459,0,1,1-1.52915,0V16.603l-9.27962,11.92674a.87169.87169,0,0,1-.66433.40056.69926.69926,0,0,1-.80161-.78038V14.36743a.77513.77513,0,0,1,1.55022.00048V25.93152l9.26525-11.92562a.8706.8706,0,0,1,.672-.40831A.6929.6929,0,0,1,131.00862,14.378Z"
          fill="#fff"/>
    <path class="logo-text"
          d="M149.021,28.1918a.67078.67078,0,0,1-.24869.52.822.822,0,0,1-.55579.21852.70065.70065,0,0,1-.667-.419l-6.205-12.39977L135.13924,28.5116a.69341.69341,0,0,1-.65667.41868.8327.8327,0,0,1-.56649-.21932.67449.67449,0,0,1-.24885-.52227.76823.76823,0,0,1,.09481-.36569l6.82436-13.66052a.78374.78374,0,0,1,1.50649.00471l6.824,13.66044A.71034.71034,0,0,1,149.021,28.1918Z"
          fill="#fff"/>
    <path class="logo-text"
          d="M166,28.1918a.67078.67078,0,0,1-.24869.52.822.822,0,0,1-.55579.21852.70065.70065,0,0,1-.667-.419l-2.11032-4.21738a.92936.92936,0,0,1-.27375.03871h-7.64192a.93475.93475,0,0,1-.27375-.03839l-2.11048,4.21738a.69341.69341,0,0,1-.65667.41868.82838.82838,0,0,1-.56649-.22131.68307.68307,0,0,1-.24885-.52706.779.779,0,0,1,.09481-.36888l6.82436-13.65055a.78374.78374,0,0,1,1.50649.00471l6.824,13.66044A.71034.71034,0,0,1,166,28.1918Zm-4.3394-5.38826-3.33716-6.692-3.349,6.692Z"
          fill="#fff"/>
    <path class="logo-text"
          d="M100.0875,14.378V28.16044a.76455.76455,0,1,1-1.52907,0V16.60295l-9.2795,11.92669a.87182.87182,0,0,1-.66433.40064.69919.69919,0,0,1-.8016-.78037V14.36749a.77508.77508,0,0,1,1.55013.00048V25.93153L98.62835,14.006a.87059.87059,0,0,1,.67191-.4083A.69286.69286,0,0,1,100.0875,14.378Zm-3.037-4.6109a1.28454,1.28454,0,0,1-.43233.75659,3.90983,3.90983,0,0,1-2.65741,1.54495,3.01113,3.01113,0,0,1-1.624-.60958,4.80329,4.80329,0,0,1-1.27591-1.20847.87676.87676,0,0,1-.17933-.48348.71936.71936,0,0,1,.24254-.536A.77459.77459,0,0,1,91.67249,9q.30575,0,1.04925.76984a1.37368,1.37368,0,0,0,2.46754,0Q95.93271,9.00008,96.23854,9a.80485.80485,0,0,1,.56417.23113A.71356.71356,0,0,1,97.05052,9.76713Z"
          fill="#fff"/>
    <polygon class="logo-shape-01" points="0 0 0 10.5 10.5 10.5 0 0" fill="#fff" opacity="0.75"/>
    <polygon class="logo-shape-01" points="5.25 0 5.25 10.5 15.75 10.5 5.25 0" fill="#fff" opacity="0.85"/>
    <polygon class="logo-shape-01" points="5.25 10.5 5.25 21 15.75 21 5.25 10.5" fill="#fff" opacity="0.85"/>
    <polygon class="logo-shape-01" points="10.5 10.5 10.5 21 21 21 10.5 10.5" fill="#fff" opacity="0.75"/>
    <polygon class="logo-shape-01" points="0 10.5 0 21 10.5 21 0 10.5" fill="#fff" opacity="0.75"/>
    <polygon class="logo-shape-02" points="15.75 31.5 15.75 21 5.25 21 15.75 31.5" fill="#fff" opacity="0.85"/>
    <polygon class="logo-shape-02" points="10.5 31.5 10.5 21 0 21 10.5 31.5" fill="#fff" opacity="0.75"/>
    <polygon class="logo-shape-02" points="21 31.5 21 21 10.5 21 21 31.5" fill="#fff" opacity="0.75"/>
    <polygon class="logo-shape-02" points="15.75 42 15.75 31.5 5.25 31.5 15.75 42" fill="#fff" opacity="0.85"/>
    <polygon class="logo-shape-02" points="21 42 21 31.5 10.5 31.5 21 42" fill="#fff" opacity="0.75"/>

    <style>
        .logo-text {
            fill: #f16d32;
        }

        .logo-shape-01 {
            fill: #fabb05;
        }

        .logo-shape-02 {
            fill: #f16d32;
        }
    </style>
</svg>
